<svg width="128" height="128" viewBox="0 0 128 128" xmlns="http://www.w3.org/2000/svg">
  <!-- Background circle that completely fills the space -->
  <circle cx="64" cy="64" r="64" fill="#4285F4"/>
  
  <!-- Inner circle for contrast -->
  <circle cx="64" cy="64" r="50" fill="#FFFFFF" opacity="0.15"/>
  
  <!-- AI/Siri-like central icon -->
  <g transform="translate(64, 64)">
    <!-- Main AI brain shape -->
    <path d="M-20,-25 Q-30,-15 -30,0 Q-30,15 -20,25 Q-10,30 0,30 Q10,30 20,25 Q30,15 30,0 Q30,-15 20,-25 Q10,-30 0,-30 Q-10,-30 -20,-25 Z" fill="#FFFFFF" opacity="0.9"/>
    
    <!-- Neural network pattern -->
    <circle cx="-15" cy="-10" r="4" fill="#4285F4"/>
    <circle cx="0" cy="-15" r="4" fill="#4285F4"/>
    <circle cx="15" cy="-10" r="4" fill="#4285F4"/>
    <circle cx="-10" cy="5" r="4" fill="#4285F4"/>
    <circle cx="10" cy="5" r="4" fill="#4285F4"/>
    <circle cx="0" cy="10" r="4" fill="#4285F4"/>
    
    <!-- Connection lines -->
    <line x1="-15" y1="-10" x2="0" y2="-15" stroke="#4285F4" stroke-width="2"/>
    <line x1="0" y1="-15" x2="15" y2="-10" stroke="#4285F4" stroke-width="2"/>
    <line x1="-15" y1="-10" x2="-10" y2="5" stroke="#4285F4" stroke-width="2"/>
    <line x1="15" y1="-10" x2="10" y2="5" stroke="#4285F4" stroke-width="2"/>
    <line x1="-10" y1="5" x2="0" y2="10" stroke="#4285F4" stroke-width="2"/>
    <line x1="10" y1="5" x2="0" y2="10" stroke="#4285F4" stroke-width="2"/>
  </g>
  
  <!-- Subtle highlight for depth -->
  <circle cx="64" cy="64" r="60" fill="none" stroke="#FFFFFF" stroke-width="2" opacity="0.3"/>
</svg>